<svg xmlns="http://www.w3.org/2000/svg" xmlns:xlink="http://www.w3.org/1999/xlink" preserveAspectRatio="xMidYMid" width="64" height="64" viewBox="0 0 64 64">
  <defs>
    <style>
      .cls-1 {
        fill: #000;
        filter: url(#color-overlay-1);
        fill-rule: evenodd;
      }
    </style>

    <filter id="color-overlay-1" filterUnits="userSpaceOnUse">
      <feFlood flood-color="#00b2ef"/>
      <feComposite operator="in" in2="SourceGraphic"/>
      <feBlend in2="SourceGraphic" result="solidFill"/>
    </filter>
  </defs>
  <path d="M36.999,50.467 C36.915,50.685 36.756,50.870 36.564,50.995 C36.312,51.154 30.290,55.000 20.214,55.000 C10.139,55.000 4.116,51.163 3.865,50.995 C3.664,50.870 3.513,50.685 3.430,50.467 C2.986,49.345 2.994,47.108 3.003,46.672 C3.003,46.664 3.003,46.655 3.003,46.647 C3.011,46.580 3.011,46.513 3.011,46.438 C3.061,44.787 3.170,40.908 6.805,39.660 C6.830,39.651 6.855,39.643 6.889,39.635 C10.683,38.671 13.807,36.493 13.841,36.468 C14.351,36.107 15.055,36.233 15.415,36.744 C15.775,37.255 15.650,37.959 15.139,38.319 C14.996,38.411 11.663,40.740 7.492,41.813 C5.540,42.508 5.323,44.594 5.264,46.505 C5.264,46.580 5.256,46.647 5.256,46.714 C5.239,47.468 5.297,48.633 5.431,49.303 C6.797,50.074 12.149,52.746 20.206,52.746 C28.297,52.746 33.615,50.082 34.972,49.311 C35.106,48.641 35.156,47.476 35.148,46.722 C35.140,46.655 35.140,46.588 35.140,46.513 C35.081,44.603 34.863,42.517 32.912,41.821 C28.741,40.749 25.407,38.428 25.265,38.328 C24.754,37.967 24.628,37.264 24.988,36.752 C25.349,36.241 26.052,36.116 26.563,36.476 C26.597,36.501 29.737,38.679 33.515,39.643 C33.540,39.651 33.573,39.660 33.599,39.668 C37.234,40.908 37.343,44.787 37.393,46.446 C37.393,46.521 37.401,46.588 37.401,46.655 C37.401,46.664 37.401,46.672 37.401,46.681 C37.409,47.116 37.418,49.353 36.999,50.467 ZM20.323,36.342 C20.298,36.342 20.265,36.342 20.239,36.342 C20.223,36.342 20.206,36.342 20.189,36.342 C20.139,36.342 20.097,36.342 20.055,36.342 C17.601,36.300 15.616,35.437 14.159,33.787 C10.934,30.151 11.470,23.917 11.529,23.322 C11.738,18.823 13.882,16.687 15.641,15.690 C17.392,14.693 19.218,14.542 20.147,14.542 L20.198,14.542 C20.206,14.542 20.223,14.542 20.231,14.542 L20.290,14.542 C21.982,14.576 23.498,14.978 24.796,15.723 C26.538,16.720 28.649,18.857 28.858,23.322 C28.917,23.917 29.453,30.151 26.228,33.787 C24.762,35.437 22.777,36.300 20.323,36.342 ZM26.613,23.532 C26.605,23.515 26.605,23.490 26.605,23.465 C26.345,17.784 22.501,16.863 20.239,16.813 C20.214,16.813 20.189,16.813 20.172,16.813 L20.139,16.813 C18.313,16.813 14.050,17.458 13.774,23.465 C13.774,23.482 13.765,23.507 13.765,23.532 C13.757,23.582 13.187,29.304 15.842,32.287 C16.889,33.477 18.305,34.063 20.147,34.080 C20.164,34.080 20.172,34.080 20.189,34.080 C20.206,34.080 20.214,34.080 20.231,34.080 C22.082,34.063 23.489,33.477 24.545,32.287 C27.208,29.288 26.622,23.591 26.613,23.532 Z" class="cls-1"/>
  <path d="M58.818,9.000 C56.512,9.000 54.636,10.891 54.636,13.215 C54.636,14.497 55.207,15.645 56.105,16.419 L52.176,23.944 C51.829,23.850 51.466,23.799 51.090,23.799 C50.193,23.799 49.361,24.087 48.679,24.574 L45.689,21.855 C46.031,21.244 46.227,20.540 46.227,19.791 C46.227,17.467 44.351,15.576 42.045,15.576 C39.739,15.576 37.863,17.467 37.863,19.791 C37.863,20.913 38.301,21.933 39.012,22.689 L34.558,29.395 C34.091,29.213 33.584,29.112 33.053,29.112 C30.748,29.112 28.872,31.003 28.872,33.327 C28.872,35.651 30.748,37.542 33.053,37.542 C35.359,37.542 37.235,35.651 37.235,33.327 C37.235,32.205 36.797,31.185 36.086,30.429 L40.540,23.722 C41.008,23.905 41.515,24.006 42.045,24.006 C42.942,24.006 43.774,23.718 44.456,23.232 L47.446,25.950 C47.104,26.561 46.908,27.265 46.908,28.014 C46.908,30.339 48.784,32.229 51.090,32.229 C53.396,32.229 55.272,30.339 55.272,28.014 C55.272,26.733 54.701,25.584 53.803,24.810 L57.732,17.285 C58.079,17.379 58.443,17.430 58.818,17.430 C61.124,17.430 63.000,15.539 63.000,13.215 C63.000,10.891 61.124,9.000 58.818,9.000 ZM33.053,35.688 C31.762,35.688 30.712,34.629 30.712,33.327 C30.712,32.025 31.762,30.967 33.053,30.967 C34.345,30.967 35.395,32.025 35.395,33.327 C35.395,34.629 34.345,35.688 33.053,35.688 ZM42.045,22.151 C40.753,22.151 39.703,21.092 39.703,19.791 C39.703,18.489 40.753,17.430 42.045,17.430 C43.336,17.430 44.387,18.489 44.387,19.791 C44.387,21.092 43.336,22.151 42.045,22.151 ZM48.748,28.014 C48.748,26.713 49.799,25.654 51.090,25.654 C52.381,25.654 53.432,26.713 53.432,28.014 C53.432,29.316 52.381,30.375 51.090,30.375 C49.799,30.375 48.748,29.316 48.748,28.014 ZM58.818,15.576 C57.527,15.576 56.476,14.517 56.476,13.215 C56.476,11.914 57.527,10.855 58.818,10.855 C60.109,10.855 61.160,11.914 61.160,13.215 C61.160,14.517 60.109,15.576 58.818,15.576 Z" class="cls-1"/>
</svg>
